<svg width="132" height="132" viewBox="0 0 132 132" fill="none" xmlns="http://www.w3.org/2000/svg">
<rect width="132" height="132" rx="16" fill="#30E3CA"/>
<path d="M115 57.25C115 59.6728 114.282 62.0412 112.935 64.0557C111.589 66.0702 109.676 67.6404 107.438 68.5675C105.199 69.4947 102.736 69.7373 100.36 69.2646C97.9839 68.792 95.8011 67.6253 94.0879 65.9121C92.3747 64.1989 91.208 62.0161 90.7354 59.6399C90.2627 57.2636 90.5053 54.8005 91.4325 52.5621C92.3597 50.3237 93.9298 48.4106 95.9443 47.0645C97.9588 45.7185 100.327 45 102.75 45C105.999 45 109.115 46.2906 111.412 48.5879C113.709 50.8853 115 54.0011 115 57.25ZM41.5 57.25C41.5 54.8272 40.7815 52.4588 39.4355 50.4443C38.0895 48.4298 36.1763 46.8597 33.9379 45.9325C31.6995 45.0053 29.2364 44.7627 26.8601 45.2354C24.4839 45.7081 22.3011 46.8748 20.5879 48.5879C18.8747 50.3011 17.708 52.4839 17.2354 54.8601C16.7627 57.2364 17.0053 59.6995 17.9325 61.9379C18.8596 64.1763 20.4298 66.0895 22.4443 67.4355C24.4588 68.7816 26.8272 69.5 29.25 69.5C32.4989 69.5 35.6147 68.2094 37.9121 65.9121C40.2094 63.6147 41.5 60.4989 41.5 57.25ZM50.25 48.5C52.6728 48.5 55.0412 47.7816 57.0557 46.4355C59.0702 45.0895 60.6404 43.1763 61.5675 40.9379C62.4947 38.6995 62.7373 36.2364 62.2646 33.8601C61.792 31.4839 60.6252 29.3011 58.9121 27.5879C57.1989 25.8748 55.0161 24.7081 52.6399 24.2354C50.2636 23.7627 47.8005 24.0053 45.5621 24.9325C43.3237 25.8597 41.4105 27.4298 40.0645 29.4443C38.7184 31.4588 38 33.8272 38 36.25C38 39.4989 39.2906 42.6147 41.5879 44.9121C43.8853 47.2094 47.0011 48.5 50.25 48.5ZM81.75 48.5C84.1728 48.5 86.5412 47.7816 88.5557 46.4355C90.5702 45.0895 92.1403 43.1763 93.0675 40.9379C93.9947 38.6995 94.2373 36.2364 93.7646 33.8601C93.292 31.4839 92.1253 29.3011 90.4121 27.5879C88.6989 25.8748 86.5161 24.7081 84.1399 24.2354C81.7636 23.7627 79.3005 24.0053 77.0621 24.9325C74.8237 25.8597 72.9105 27.4298 71.5645 29.4443C70.2185 31.4588 69.5 33.8272 69.5 36.25C69.5 39.4989 70.7906 42.6147 73.0879 44.9121C75.3853 47.2094 78.5011 48.5 81.75 48.5ZM91.865 75.1263C90.0872 74.1455 88.5202 72.8238 87.2538 71.2368C85.9873 69.6498 85.0462 67.8286 84.4844 65.8775C83.3206 61.8755 80.8895 58.3592 77.5563 55.8572C74.223 53.3551 70.1678 52.0025 66 52.0025C61.8322 52.0025 57.777 53.3551 54.4437 55.8572C51.1105 58.3592 48.6794 61.8755 47.5156 65.8775C46.3915 69.8035 43.7561 73.1233 40.1875 75.1088C36.7641 76.9611 34.0561 79.902 32.4916 83.4661C30.9271 87.0302 30.5954 91.0142 31.5492 94.7879C32.5029 98.5617 34.6875 101.91 37.7575 104.303C40.8275 106.695 44.6076 107.997 48.5 108C50.8326 108.007 53.1423 107.541 55.29 106.631C62.1372 103.807 69.8235 103.807 76.6706 106.631C80.8179 108.434 85.5025 108.562 89.7422 106.988C93.9818 105.414 97.4474 102.259 99.4123 98.1857C101.377 94.1123 101.689 89.4364 100.282 85.1382C98.8747 80.8401 95.8583 77.2536 91.865 75.1306V75.1263Z" fill="#E4F9F5"/>
</svg>
