<svg width="438" height="112" viewBox="0 0 438 112" fill="none" xmlns="http://www.w3.org/2000/svg">
<path d="M390.262 45.8144V84.7269H379.769V35.8831H389.632L390.262 45.8144ZM388.551 58.5445H384.993C384.933 55.1437 385.233 52.0139 385.894 49.1549C386.584 46.2959 387.605 43.798 388.956 41.6613C390.337 39.5246 392.064 37.8844 394.135 36.7408C396.207 35.5671 398.639 34.9803 401.431 34.9803C403.233 34.9803 404.899 35.3113 406.43 35.9734C407.991 36.6054 409.342 37.6136 410.483 38.9979C411.654 40.3823 412.555 42.1579 413.185 44.3247C413.816 46.4915 414.131 49.1098 414.131 52.1794V84.7269H403.638V53.1725C403.638 50.8252 403.368 48.9894 402.827 47.6652C402.317 46.3109 401.566 45.3479 400.575 44.7761C399.585 44.2043 398.384 43.9184 396.973 43.9184C395.441 43.9184 394.135 44.3096 393.055 45.0921C391.974 45.8445 391.103 46.8978 390.442 48.2521C389.782 49.5762 389.302 51.1261 389.001 52.9017C388.701 54.6472 388.551 56.5281 388.551 58.5445ZM413.456 55.7456L408.547 56.8742C408.487 53.8948 408.787 51.096 409.447 48.4778C410.108 45.8294 411.099 43.4971 412.42 41.4807C413.771 39.4644 415.452 37.8844 417.464 36.7408C419.505 35.5671 421.862 34.9803 424.534 34.9803C426.606 34.9803 428.467 35.3264 430.119 36.0186C431.8 36.6806 433.226 37.734 434.397 39.1785C435.568 40.623 436.454 42.504 437.054 44.8213C437.685 47.1085 438 49.8922 438 53.1725V84.7269H427.462V53.1274C427.462 50.6897 427.191 48.8088 426.651 47.4846C426.141 46.1605 425.39 45.2426 424.399 44.731C423.408 44.1893 422.223 43.9184 420.841 43.9184C419.641 43.9184 418.575 44.2344 417.644 44.8664C416.743 45.4683 415.978 46.3109 415.347 47.3944C414.717 48.4778 414.236 49.7417 413.906 51.1863C413.606 52.6007 413.456 54.1205 413.456 55.7456Z" fill="#30E3CA"/>
<path d="M358.467 74.7956V50.464C358.467 48.7787 358.227 47.4245 357.747 46.4012C357.296 45.378 356.621 44.6407 355.72 44.1893C354.849 43.7078 353.754 43.467 352.433 43.467C351.051 43.467 349.881 43.7529 348.92 44.3247C347.989 44.8965 347.283 45.679 346.803 46.6721C346.323 47.6351 346.083 48.7486 346.083 50.0126H335.589C335.589 48.0564 335.98 46.1755 336.76 44.3698C337.571 42.5642 338.727 40.9541 340.228 39.5396C341.729 38.1252 343.546 37.0117 345.677 36.1991C347.809 35.3866 350.181 34.9803 352.793 34.9803C355.915 34.9803 358.692 35.5069 361.124 36.5603C363.556 37.5835 365.463 39.2537 366.844 41.571C368.255 43.8582 368.961 46.8677 368.961 50.5994V73.3962C368.961 75.6533 369.096 77.6696 369.366 79.4452C369.666 81.1907 370.071 82.7105 370.582 84.0046V84.7269H359.908C359.428 83.5532 359.068 82.0484 358.828 80.2127C358.587 78.3769 358.467 76.5712 358.467 74.7956ZM359.863 54.9782L359.908 61.7947H354.864C353.363 61.7947 352.012 62.0053 350.811 62.4267C349.61 62.8179 348.59 63.3897 347.749 64.1421C346.938 64.8643 346.308 65.7521 345.857 66.8055C345.437 67.8588 345.227 69.0174 345.227 70.2814C345.227 71.8162 345.437 73.0652 345.857 74.0282C346.308 74.9912 346.953 75.7135 347.794 76.195C348.665 76.6464 349.715 76.8721 350.946 76.8721C352.628 76.8721 354.084 76.511 355.315 75.7887C356.576 75.0364 357.537 74.1335 358.197 73.0802C358.888 72.0269 359.158 71.0639 359.008 70.1911L361.395 74.5699C361.154 75.7135 360.704 76.9173 360.044 78.1813C359.413 79.4452 358.587 80.649 357.567 81.7926C356.546 82.9362 355.315 83.8692 353.874 84.5914C352.433 85.2836 350.766 85.6297 348.875 85.6297C346.143 85.6297 343.711 85.0579 341.579 83.9143C339.447 82.7707 337.766 81.1305 336.535 78.9938C335.334 76.827 334.734 74.2388 334.734 71.2294C334.734 68.7917 335.139 66.5797 335.95 64.5935C336.76 62.6072 337.961 60.9069 339.552 59.4924C341.144 58.0479 343.14 56.9344 345.542 56.1519C347.974 55.3695 350.811 54.9782 354.054 54.9782H359.863Z" fill="#30E3CA"/>
<path d="M318.521 45.3178V84.7269H308.027V35.8831H318.025L318.521 45.3178ZM330.275 35.5671L330.23 45.9498C329.63 45.7993 328.984 45.7091 328.293 45.679C327.633 45.6188 326.972 45.5887 326.312 45.5887C324.871 45.5887 323.625 45.8445 322.574 46.3561C321.523 46.8677 320.637 47.605 319.917 48.5681C319.196 49.5311 318.626 50.6897 318.205 52.044C317.815 53.3983 317.575 54.9331 317.485 56.6485L315.233 56.7388C315.233 53.6691 315.473 50.8252 315.954 48.2069C316.434 45.5586 317.155 43.2563 318.115 41.3002C319.106 39.3139 320.337 37.764 321.808 36.6505C323.279 35.537 324.991 34.9803 326.942 34.9803C327.483 34.9803 328.098 35.0405 328.789 35.1609C329.479 35.2812 329.975 35.4167 330.275 35.5671Z" fill="#30E3CA"/>
<path d="M287.987 35.8831H297.489V84.9074C297.489 89.3013 296.679 92.8976 295.057 95.6964C293.466 98.5253 291.244 100.617 288.392 101.971C285.54 103.325 282.237 104.003 278.484 104.003C277.103 104.003 275.467 103.777 273.575 103.325C271.684 102.874 269.837 102.212 268.036 101.339C266.235 100.466 264.733 99.383 263.532 98.0889L267.36 90.7759C268.772 92.2204 270.438 93.3339 272.359 94.1164C274.281 94.929 276.127 95.3352 277.899 95.3352C279.82 95.3352 281.442 95.0042 282.763 94.3421C284.114 93.7101 285.149 92.6418 285.87 91.137C286.591 89.6624 286.951 87.6611 286.951 85.1331V46.9429L287.987 35.8831ZM260.425 62.2912V58.4542C260.425 54.4516 260.8 50.9907 261.551 48.0715C262.301 45.1222 263.382 42.6695 264.793 40.7133C266.205 38.7572 267.931 37.3126 269.972 36.3797C272.014 35.4468 274.296 34.9803 276.818 34.9803C279.43 34.9803 281.637 35.537 283.438 36.6505C285.27 37.734 286.756 39.2838 287.897 41.3002C289.068 43.3165 289.983 45.7241 290.644 48.5229C291.304 51.2916 291.785 54.3914 292.085 57.8222V63.1489C291.785 66.4594 291.274 69.4989 290.554 72.2676C289.833 75.0063 288.857 77.3687 287.626 79.3549C286.425 81.3412 284.924 82.8911 283.123 84.0046C281.351 85.088 279.22 85.6297 276.728 85.6297C274.236 85.6297 271.984 85.1331 269.972 84.14C267.961 83.1469 266.235 81.6722 264.793 79.7161C263.382 77.7599 262.301 75.3373 261.551 72.4482C260.8 69.529 260.425 66.1434 260.425 62.2912ZM270.918 58.4542V62.2912C270.918 64.7891 271.083 66.9409 271.414 68.7466C271.774 70.5522 272.299 72.0419 272.99 73.2156C273.68 74.3592 274.581 75.2169 275.692 75.7887C276.803 76.3304 278.124 76.6013 279.655 76.6013C281.667 76.6013 283.288 76.1198 284.519 75.1567C285.78 74.1937 286.741 72.8996 287.401 71.2745C288.092 69.6193 288.572 67.7835 288.842 65.7672V55.2491C288.692 53.6541 288.392 52.1794 287.942 50.8252C287.521 49.4408 286.936 48.237 286.185 47.2138C285.465 46.1906 284.564 45.3931 283.483 44.8213C282.432 44.2194 281.186 43.9184 279.745 43.9184C278.244 43.9184 276.923 44.2194 275.782 44.8213C274.671 45.3931 273.755 46.2809 273.035 47.4846C272.314 48.6583 271.774 50.1631 271.414 51.9988C271.083 53.8045 270.918 55.9563 270.918 58.4542Z" fill="#30E3CA"/>
<path d="M253.85 35.8831V44.0087H229.936V35.8831H253.85ZM236.466 23.9205H246.914V71.0939C246.914 72.5987 247.079 73.7423 247.41 74.5247C247.74 75.3072 248.205 75.8339 248.806 76.1047C249.406 76.3756 250.112 76.511 250.922 76.511C251.523 76.511 252.108 76.4659 252.679 76.3756C253.279 76.2552 253.715 76.1499 253.985 76.0596V84.5463C253.204 84.8472 252.304 85.103 251.283 85.3137C250.262 85.5244 249.031 85.6297 247.59 85.6297C245.458 85.6297 243.552 85.1933 241.87 84.3206C240.189 83.4177 238.868 81.9581 237.907 79.9418C236.946 77.8954 236.466 75.1868 236.466 71.8162V23.9205Z" fill="#30E3CA"/>
<path d="M209.039 85.6297C205.887 85.6297 203.08 85.1632 200.618 84.2303C198.156 83.2673 196.069 81.8528 194.358 79.9869C192.647 78.091 191.34 75.7737 190.44 73.0351C189.539 70.2663 189.089 67.0613 189.089 63.4198V58.725C189.089 54.602 189.554 51.0509 190.485 48.0715C191.446 45.062 192.767 42.5942 194.448 40.6682C196.129 38.7421 198.111 37.3126 200.393 36.3797C202.704 35.4468 205.211 34.9803 207.914 34.9803C210.976 34.9803 213.633 35.4768 215.885 36.47C218.137 37.4631 219.983 38.9528 221.424 40.939C222.895 42.9253 223.976 45.378 224.667 48.2972C225.387 51.2164 225.748 54.5719 225.748 58.3639V63.6455H194.133V55.7005H215.389V54.5719C215.329 52.3449 215.059 50.4339 214.579 48.8389C214.098 47.2138 213.318 45.9799 212.237 45.1373C211.186 44.2645 209.73 43.8281 207.869 43.8281C206.517 43.8281 205.317 44.0839 204.266 44.5955C203.215 45.1072 202.344 45.9348 201.654 47.0784C200.993 48.222 200.483 49.7568 200.122 51.6829C199.762 53.5788 199.582 55.9262 199.582 58.725V63.4198C199.582 65.8575 199.792 67.919 200.212 69.6043C200.663 71.2896 201.323 72.6739 202.194 73.7573C203.065 74.8106 204.116 75.5931 205.347 76.1047C206.608 76.5862 208.064 76.827 209.715 76.827C212.147 76.827 214.234 76.3756 215.975 75.4727C217.746 74.5398 219.278 73.336 220.569 71.8614L225.207 78.3167C224.337 79.4904 223.166 80.649 221.694 81.7926C220.223 82.9061 218.437 83.824 216.335 84.5463C214.264 85.2686 211.832 85.6297 209.039 85.6297Z" fill="#30E3CA"/>
<path d="M161.662 60.3501H147.836V51.1863H161.662C163.914 51.1863 165.73 50.7048 167.111 49.7418C168.522 48.7787 169.543 47.4546 170.174 45.7693C170.834 44.0839 171.165 42.1729 171.165 40.0362C171.165 37.9898 170.834 36.0637 170.174 34.258C169.543 32.4523 168.538 30.9927 167.156 29.8792C165.775 28.7657 163.944 28.209 161.662 28.209H150.899V84.7269H140V19H161.662C165.985 19 169.678 19.9028 172.741 21.7085C175.803 23.5142 178.145 25.997 179.766 29.157C181.388 32.2868 182.198 35.8831 182.198 39.9459C182.198 44.1893 181.388 47.8307 179.766 50.8703C178.145 53.9099 175.803 56.2573 172.741 57.9125C169.678 59.5376 165.985 60.3501 161.662 60.3501Z" fill="#30E3CA"/>
<path d="M105 47.25C105 49.6728 104.282 52.0412 102.935 54.0557C101.589 56.0702 99.6763 57.6404 97.4379 58.5675C95.1995 59.4947 92.7364 59.7373 90.3601 59.2646C87.9839 58.792 85.8011 57.6253 84.0879 55.9121C82.3747 54.1989 81.208 52.0161 80.7354 49.6399C80.2627 47.2636 80.5053 44.8005 81.4325 42.5621C82.3597 40.3237 83.9298 38.4106 85.9443 37.0645C87.9588 35.7185 90.3272 35 92.75 35C95.9989 35 99.1147 36.2906 101.412 38.5879C103.709 40.8853 105 44.0011 105 47.25ZM31.5 47.25C31.5 44.8272 30.7815 42.4588 29.4355 40.4443C28.0895 38.4298 26.1763 36.8597 23.9379 35.9325C21.6995 35.0053 19.2364 34.7627 16.8601 35.2354C14.4839 35.7081 12.3011 36.8748 10.5879 38.5879C8.87475 40.3011 7.70805 42.4839 7.23538 44.8601C6.76271 47.2364 7.0053 49.6995 7.93247 51.9379C8.85965 54.1763 10.4298 56.0895 12.4443 57.4355C14.4588 58.7816 16.8272 59.5 19.25 59.5C22.4989 59.5 25.6147 58.2094 27.9121 55.9121C30.2094 53.6147 31.5 50.4989 31.5 47.25ZM40.25 38.5C42.6728 38.5 45.0412 37.7816 47.0557 36.4355C49.0702 35.0895 50.6404 33.1763 51.5675 30.9379C52.4947 28.6995 52.7373 26.2364 52.2646 23.8601C51.792 21.4839 50.6252 19.3011 48.9121 17.5879C47.1989 15.8748 45.0161 14.7081 42.6399 14.2354C40.2636 13.7627 37.8005 14.0053 35.5621 14.9325C33.3237 15.8597 31.4105 17.4298 30.0645 19.4443C28.7184 21.4588 28 23.8272 28 26.25C28 29.4989 29.2906 32.6147 31.5879 34.9121C33.8853 37.2094 37.0011 38.5 40.25 38.5ZM71.75 38.5C74.1728 38.5 76.5412 37.7816 78.5557 36.4355C80.5702 35.0895 82.1403 33.1763 83.0675 30.9379C83.9947 28.6995 84.2373 26.2364 83.7646 23.8601C83.292 21.4839 82.1253 19.3011 80.4121 17.5879C78.6989 15.8748 76.5161 14.7081 74.1399 14.2354C71.7636 13.7627 69.3005 14.0053 67.0621 14.9325C64.8237 15.8597 62.9105 17.4298 61.5645 19.4443C60.2185 21.4588 59.5 23.8272 59.5 26.25C59.5 29.4989 60.7906 32.6147 63.0879 34.9121C65.3853 37.2094 68.5011 38.5 71.75 38.5ZM81.865 65.1263C80.0872 64.1455 78.5202 62.8238 77.2538 61.2368C75.9873 59.6498 75.0462 57.8286 74.4844 55.8775C73.3206 51.8755 70.8895 48.3592 67.5563 45.8572C64.223 43.3551 60.1678 42.0025 56 42.0025C51.8322 42.0025 47.777 43.3551 44.4437 45.8572C41.1105 48.3592 38.6794 51.8755 37.5156 55.8775C36.3915 59.8035 33.7561 63.1233 30.1875 65.1088C26.7641 66.9611 24.0561 69.902 22.4916 73.4661C20.9271 77.0302 20.5954 81.0142 21.5492 84.7879C22.5029 88.5617 24.6875 91.9097 27.7575 94.3026C30.8275 96.6954 34.6076 97.9965 38.5 98C40.8326 98.0067 43.1423 97.5409 45.29 96.6306C52.1372 93.8068 59.8235 93.8068 66.6706 96.6306C70.8179 98.4344 75.5025 98.5625 79.7422 96.9881C83.9818 95.4138 87.4474 92.2592 89.4123 88.1857C91.3771 84.1123 91.6887 79.4364 90.2817 75.1382C88.8747 70.8401 85.8583 67.2536 81.865 65.1306V65.1263Z" fill="#30E3CA"/>
</svg>
