<svg width="476" height="132" viewBox="0 0 476 132" fill="none" xmlns="http://www.w3.org/2000/svg">
<rect width="476" height="132" rx="16" fill="#30E3CA"/>
<path d="M400.262 55.8144V94.7269H389.769V45.8831H399.632L400.262 55.8144ZM398.551 68.5445H394.993C394.933 65.1437 395.233 62.0139 395.894 59.1549C396.584 56.2959 397.605 53.798 398.956 51.6613C400.337 49.5246 402.064 47.8844 404.135 46.7408C406.207 45.5671 408.639 44.9803 411.431 44.9803C413.233 44.9803 414.899 45.3113 416.43 45.9734C417.991 46.6054 419.342 47.6136 420.483 48.9979C421.654 50.3823 422.555 52.1579 423.185 54.3247C423.816 56.4915 424.131 59.1098 424.131 62.1794V94.7269H413.638V63.1725C413.638 60.8252 413.368 58.9894 412.827 57.6652C412.317 56.3109 411.566 55.3479 410.575 54.7761C409.585 54.2043 408.384 53.9184 406.973 53.9184C405.441 53.9184 404.135 54.3096 403.055 55.0921C401.974 55.8445 401.103 56.8978 400.442 58.2521C399.782 59.5762 399.302 61.1261 399.001 62.9017C398.701 64.6472 398.551 66.5281 398.551 68.5445ZM423.456 65.7456L418.547 66.8742C418.487 63.8948 418.787 61.096 419.447 58.4778C420.108 55.8294 421.099 53.4971 422.42 51.4807C423.771 49.4644 425.452 47.8844 427.464 46.7408C429.505 45.5671 431.862 44.9803 434.534 44.9803C436.606 44.9803 438.467 45.3264 440.119 46.0186C441.8 46.6806 443.226 47.734 444.397 49.1785C445.568 50.623 446.454 52.504 447.054 54.8213C447.685 57.1085 448 59.8922 448 63.1725V94.7269H437.462V63.1274C437.462 60.6897 437.191 58.8088 436.651 57.4846C436.141 56.1605 435.39 55.2426 434.399 54.731C433.408 54.1893 432.223 53.9184 430.841 53.9184C429.641 53.9184 428.575 54.2344 427.644 54.8664C426.743 55.4683 425.978 56.3109 425.347 57.3944C424.717 58.4778 424.236 59.7417 423.906 61.1863C423.606 62.6007 423.456 64.1205 423.456 65.7456Z" fill="#E4F9F5"/>
<path d="M368.467 84.7956V60.464C368.467 58.7787 368.227 57.4245 367.747 56.4012C367.296 55.378 366.621 54.6407 365.72 54.1893C364.849 53.7078 363.754 53.467 362.433 53.467C361.051 53.467 359.881 53.7529 358.92 54.3247C357.989 54.8965 357.283 55.679 356.803 56.6721C356.323 57.6351 356.083 58.7486 356.083 60.0126H345.589C345.589 58.0564 345.98 56.1755 346.76 54.3698C347.571 52.5642 348.727 50.9541 350.228 49.5396C351.729 48.1252 353.546 47.0117 355.677 46.1991C357.809 45.3866 360.181 44.9803 362.793 44.9803C365.915 44.9803 368.692 45.5069 371.124 46.5603C373.556 47.5835 375.463 49.2537 376.844 51.571C378.255 53.8582 378.961 56.8677 378.961 60.5994V83.3962C378.961 85.6533 379.096 87.6696 379.366 89.4452C379.666 91.1907 380.071 92.7105 380.582 94.0046V94.7269H369.908C369.428 93.5532 369.068 92.0484 368.828 90.2127C368.587 88.3769 368.467 86.5712 368.467 84.7956ZM369.863 64.9782L369.908 71.7947H364.864C363.363 71.7947 362.012 72.0053 360.811 72.4267C359.61 72.8179 358.59 73.3897 357.749 74.1421C356.938 74.8643 356.308 75.7521 355.857 76.8055C355.437 77.8588 355.227 79.0174 355.227 80.2814C355.227 81.8162 355.437 83.0652 355.857 84.0282C356.308 84.9912 356.953 85.7135 357.794 86.195C358.665 86.6464 359.715 86.8721 360.946 86.8721C362.628 86.8721 364.084 86.511 365.315 85.7887C366.576 85.0364 367.537 84.1335 368.197 83.0802C368.888 82.0269 369.158 81.0639 369.008 80.1911L371.395 84.5699C371.154 85.7135 370.704 86.9173 370.044 88.1813C369.413 89.4452 368.587 90.649 367.567 91.7926C366.546 92.9362 365.315 93.8692 363.874 94.5914C362.433 95.2836 360.766 95.6297 358.875 95.6297C356.143 95.6297 353.711 95.0579 351.579 93.9143C349.447 92.7707 347.766 91.1305 346.535 88.9938C345.334 86.827 344.734 84.2388 344.734 81.2294C344.734 78.7917 345.139 76.5797 345.95 74.5935C346.76 72.6072 347.961 70.9069 349.552 69.4924C351.144 68.0479 353.14 66.9344 355.542 66.1519C357.974 65.3695 360.811 64.9782 364.054 64.9782H369.863Z" fill="#E4F9F5"/>
<path d="M328.521 55.3178V94.7269H318.027V45.8831H328.025L328.521 55.3178ZM340.275 45.5671L340.23 55.9498C339.63 55.7993 338.984 55.7091 338.293 55.679C337.633 55.6188 336.972 55.5887 336.312 55.5887C334.871 55.5887 333.625 55.8445 332.574 56.3561C331.523 56.8677 330.637 57.605 329.917 58.5681C329.196 59.5311 328.626 60.6897 328.205 62.044C327.815 63.3983 327.575 64.9331 327.485 66.6485L325.233 66.7388C325.233 63.6691 325.473 60.8252 325.954 58.2069C326.434 55.5586 327.155 53.2563 328.115 51.3002C329.106 49.3139 330.337 47.764 331.808 46.6505C333.279 45.537 334.991 44.9803 336.942 44.9803C337.483 44.9803 338.098 45.0405 338.789 45.1609C339.479 45.2812 339.975 45.4167 340.275 45.5671Z" fill="#E4F9F5"/>
<path d="M297.987 45.8831H307.489V94.9074C307.489 99.3013 306.679 102.898 305.057 105.696C303.466 108.525 301.244 110.617 298.392 111.971C295.54 113.325 292.237 114.003 288.484 114.003C287.103 114.003 285.467 113.777 283.575 113.325C281.684 112.874 279.837 112.212 278.036 111.339C276.235 110.466 274.733 109.383 273.532 108.089L277.36 100.776C278.772 102.22 280.438 103.334 282.359 104.116C284.281 104.929 286.127 105.335 287.899 105.335C289.82 105.335 291.442 105.004 292.763 104.342C294.114 103.71 295.149 102.642 295.87 101.137C296.591 99.6624 296.951 97.6611 296.951 95.1331V56.9429L297.987 45.8831ZM270.425 72.2912V68.4542C270.425 64.4516 270.8 60.9907 271.551 58.0715C272.301 55.1222 273.382 52.6695 274.793 50.7133C276.205 48.7572 277.931 47.3126 279.972 46.3797C282.014 45.4468 284.296 44.9803 286.818 44.9803C289.43 44.9803 291.637 45.537 293.438 46.6505C295.27 47.734 296.756 49.2838 297.897 51.3002C299.068 53.3165 299.983 55.7241 300.644 58.5229C301.304 61.2916 301.785 64.3914 302.085 67.8222V73.1489C301.785 76.4594 301.274 79.4989 300.554 82.2676C299.833 85.0063 298.857 87.3687 297.626 89.3549C296.425 91.3412 294.924 92.8911 293.123 94.0046C291.351 95.088 289.22 95.6297 286.728 95.6297C284.236 95.6297 281.984 95.1331 279.972 94.14C277.961 93.1469 276.235 91.6722 274.793 89.7161C273.382 87.7599 272.301 85.3373 271.551 82.4482C270.8 79.529 270.425 76.1434 270.425 72.2912ZM280.918 68.4542V72.2912C280.918 74.7891 281.083 76.9409 281.414 78.7466C281.774 80.5522 282.299 82.0419 282.99 83.2156C283.68 84.3592 284.581 85.2169 285.692 85.7887C286.803 86.3304 288.124 86.6013 289.655 86.6013C291.667 86.6013 293.288 86.1198 294.519 85.1567C295.78 84.1937 296.741 82.8996 297.401 81.2745C298.092 79.6193 298.572 77.7835 298.842 75.7672V65.2491C298.692 63.6541 298.392 62.1794 297.942 60.8252C297.521 59.4408 296.936 58.237 296.185 57.2138C295.465 56.1906 294.564 55.3931 293.483 54.8213C292.432 54.2194 291.186 53.9184 289.745 53.9184C288.244 53.9184 286.923 54.2194 285.782 54.8213C284.671 55.3931 283.755 56.2809 283.035 57.4846C282.314 58.6583 281.774 60.1631 281.414 61.9988C281.083 63.8045 280.918 65.9563 280.918 68.4542Z" fill="#E4F9F5"/>
<path d="M263.85 45.8831V54.0087H239.936V45.8831H263.85ZM246.466 33.9205H256.914V81.094C256.914 82.5987 257.079 83.7423 257.41 84.5248C257.74 85.3072 258.205 85.8339 258.806 86.1047C259.406 86.3756 260.112 86.511 260.922 86.511C261.523 86.511 262.108 86.4659 262.679 86.3756C263.279 86.2552 263.715 86.1499 263.985 86.0596V94.5463C263.204 94.8473 262.304 95.1031 261.283 95.3137C260.262 95.5244 259.031 95.6297 257.59 95.6297C255.458 95.6297 253.552 95.1933 251.87 94.3206C250.189 93.4178 248.868 91.9582 247.907 89.9418C246.946 87.8954 246.466 85.1868 246.466 81.8162V33.9205Z" fill="#E4F9F5"/>
<path d="M219.039 95.6297C215.887 95.6297 213.08 95.1632 210.618 94.2303C208.156 93.2673 206.069 91.8528 204.358 89.9869C202.647 88.091 201.34 85.7737 200.44 83.0351C199.539 80.2663 199.089 77.0613 199.089 73.4198V68.725C199.089 64.602 199.554 61.0509 200.485 58.0715C201.446 55.062 202.767 52.5942 204.448 50.6682C206.129 48.7421 208.111 47.3126 210.393 46.3797C212.704 45.4468 215.211 44.9803 217.914 44.9803C220.976 44.9803 223.633 45.4768 225.885 46.47C228.137 47.4631 229.983 48.9528 231.424 50.939C232.895 52.9253 233.976 55.378 234.667 58.2972C235.387 61.2164 235.748 64.5719 235.748 68.3639V73.6455H204.133V65.7005H225.389V64.5719C225.329 62.3449 225.059 60.4339 224.579 58.8389C224.098 57.2138 223.318 55.9799 222.237 55.1373C221.186 54.2645 219.73 53.8281 217.869 53.8281C216.517 53.8281 215.317 54.0839 214.266 54.5955C213.215 55.1072 212.344 55.9348 211.654 57.0784C210.993 58.222 210.483 59.7568 210.122 61.6829C209.762 63.5788 209.582 65.9262 209.582 68.725V73.4198C209.582 75.8575 209.792 77.919 210.212 79.6043C210.663 81.2896 211.323 82.6739 212.194 83.7573C213.065 84.8106 214.116 85.5931 215.347 86.1047C216.608 86.5862 218.064 86.827 219.715 86.827C222.147 86.827 224.234 86.3756 225.975 85.4727C227.746 84.5398 229.278 83.336 230.569 81.8614L235.207 88.3167C234.337 89.4904 233.166 90.649 231.694 91.7926C230.223 92.9061 228.437 93.824 226.335 94.5463C224.264 95.2686 221.832 95.6297 219.039 95.6297Z" fill="#E4F9F5"/>
<path d="M171.662 70.3501H157.836V61.1863H171.662C173.914 61.1863 175.73 60.7048 177.111 59.7418C178.522 58.7787 179.543 57.4546 180.174 55.7693C180.834 54.0839 181.165 52.1729 181.165 50.0362C181.165 47.9898 180.834 46.0637 180.174 44.258C179.543 42.4523 178.538 40.9927 177.156 39.8792C175.775 38.7657 173.944 38.209 171.662 38.209H160.899V94.7269H150V29H171.662C175.985 29 179.678 29.9028 182.741 31.7085C185.803 33.5142 188.145 35.997 189.766 39.157C191.388 42.2868 192.198 45.8831 192.198 49.9459C192.198 54.1893 191.388 57.8307 189.766 60.8703C188.145 63.9099 185.803 66.2573 182.741 67.9125C179.678 69.5376 175.985 70.3501 171.662 70.3501Z" fill="#E4F9F5"/>
<path d="M115 57.25C115 59.6728 114.282 62.0412 112.935 64.0557C111.589 66.0702 109.676 67.6404 107.438 68.5675C105.199 69.4947 102.736 69.7373 100.36 69.2646C97.9839 68.792 95.8011 67.6253 94.0879 65.9121C92.3747 64.1989 91.208 62.0161 90.7354 59.6399C90.2627 57.2636 90.5053 54.8005 91.4325 52.5621C92.3597 50.3237 93.9298 48.4106 95.9443 47.0645C97.9588 45.7185 100.327 45 102.75 45C105.999 45 109.115 46.2906 111.412 48.5879C113.709 50.8853 115 54.0011 115 57.25ZM41.5 57.25C41.5 54.8272 40.7815 52.4588 39.4355 50.4443C38.0895 48.4298 36.1763 46.8597 33.9379 45.9325C31.6995 45.0053 29.2364 44.7627 26.8601 45.2354C24.4839 45.7081 22.3011 46.8748 20.5879 48.5879C18.8747 50.3011 17.708 52.4839 17.2354 54.8601C16.7627 57.2364 17.0053 59.6995 17.9325 61.9379C18.8596 64.1763 20.4298 66.0895 22.4443 67.4355C24.4588 68.7816 26.8272 69.5 29.25 69.5C32.4989 69.5 35.6147 68.2094 37.9121 65.9121C40.2094 63.6147 41.5 60.4989 41.5 57.25ZM50.25 48.5C52.6728 48.5 55.0412 47.7816 57.0557 46.4355C59.0702 45.0895 60.6404 43.1763 61.5675 40.9379C62.4947 38.6995 62.7373 36.2364 62.2646 33.8601C61.792 31.4839 60.6252 29.3011 58.9121 27.5879C57.1989 25.8748 55.0161 24.7081 52.6399 24.2354C50.2636 23.7627 47.8005 24.0053 45.5621 24.9325C43.3237 25.8597 41.4105 27.4298 40.0645 29.4443C38.7184 31.4588 38 33.8272 38 36.25C38 39.4989 39.2906 42.6147 41.5879 44.9121C43.8853 47.2094 47.0011 48.5 50.25 48.5ZM81.75 48.5C84.1728 48.5 86.5412 47.7816 88.5557 46.4355C90.5702 45.0895 92.1403 43.1763 93.0675 40.9379C93.9947 38.6995 94.2373 36.2364 93.7646 33.8601C93.292 31.4839 92.1253 29.3011 90.4121 27.5879C88.6989 25.8748 86.5161 24.7081 84.1399 24.2354C81.7636 23.7627 79.3005 24.0053 77.0621 24.9325C74.8237 25.8597 72.9105 27.4298 71.5645 29.4443C70.2185 31.4588 69.5 33.8272 69.5 36.25C69.5 39.4989 70.7906 42.6147 73.0879 44.9121C75.3853 47.2094 78.5011 48.5 81.75 48.5ZM91.865 75.1263C90.0872 74.1455 88.5202 72.8238 87.2538 71.2368C85.9873 69.6498 85.0462 67.8286 84.4844 65.8775C83.3206 61.8755 80.8895 58.3592 77.5563 55.8572C74.223 53.3551 70.1678 52.0025 66 52.0025C61.8322 52.0025 57.777 53.3551 54.4437 55.8572C51.1105 58.3592 48.6794 61.8755 47.5156 65.8775C46.3915 69.8035 43.7561 73.1233 40.1875 75.1088C36.7641 76.9611 34.0561 79.902 32.4916 83.4661C30.9271 87.0302 30.5954 91.0142 31.5492 94.7879C32.5029 98.5617 34.6875 101.91 37.7575 104.303C40.8275 106.695 44.6076 107.997 48.5 108C50.8326 108.007 53.1423 107.541 55.29 106.631C62.1372 103.807 69.8235 103.807 76.6706 106.631C80.8179 108.434 85.5025 108.562 89.7422 106.988C93.9818 105.414 97.4474 102.259 99.4123 98.1857C101.377 94.1123 101.689 89.4364 100.282 85.1382C98.8747 80.8401 95.8583 77.2536 91.865 75.1306V75.1263Z" fill="#E4F9F5"/>
</svg>
